<?xml version="1.0" encoding="utf-8"?>
<!-- Generator: Adobe Illustrator 27.2.0, SVG Export Plug-In . SVG Version: 6.00 Build 0)  -->
<svg version="1.1" id="Layer_1" xmlns="http://www.w3.org/2000/svg" xmlns:xlink="http://www.w3.org/1999/xlink" x="0px" y="0px"
	 width="60px" height="60px" viewBox="0 0 60 60" style="enable-background:new 0 0 60 60;" xml:space="preserve">
<style type="text/css">
	.st0{fill:#E81D25;}
	.st1{fill:none;}
	.st2{fill:#FFFFFF;}
	.st3{fill:none;stroke:#FFFFFF;stroke-width:0.5;stroke-miterlimit:10;}
</style>
<g>
	<path class="st0" d="M58,60H2c-1.1,0-2-0.9-2-2V2c0-1.1,0.9-2,2-2h56c1.1,0,2,0.9,2,2v56C60,59.1,59.1,60,58,60z"/>
</g>
<g>
	<rect x="6.3" y="10.6" class="st1" width="47.5" height="38.9"/>
	<path class="st2" d="M7.2,30.8l10.4-10.3c0.9-0.9,1.4-1.7,1.4-2.9c0-1.6-1.4-2.9-3-2.9c-1.8,0-3.2,1.5-3.2,3.4H8.1
		c0-4.4,3.5-8,7.9-8c4.2,0,7.7,3.3,7.7,7.4c0,2.3-1.2,4.3-3,6.2l-5.8,5.8h9.2v4.8H7.2V30.8z"/>
	<path class="st2" d="M30.8,24.6h-5v-4.4h5v-5.3h4.8v5.3h5v4.4h-5v5.3h-4.8V24.6z"/>
	<path class="st2" d="M45.7,15.3h-3.5v-4.8H51v23.7h-5.2V15.3z"/>
	<path class="st2" d="M12.5,40c1.4,0,2.4,0.6,2.7,1.3v-1.2h2.7v7.6c0,1.9-0.3,3.4-1.6,4.4c-0.8,0.6-2,1-3.3,1
		c-1.7,0-3.2-0.4-4.4-1.3L9.8,50c0.8,0.5,1.7,0.9,2.8,0.9c0.7,0,1.4-0.2,1.9-0.5c0.7-0.5,0.8-1.3,0.8-2v-0.2
		c-0.4,0.6-1.4,1.1-2.8,1.1c-2.6,0-4.5-2-4.5-4.6C8,42.1,9.9,40,12.5,40z M13,47c1.3,0,2.4-1,2.4-2.2c0-1.3-1.1-2.3-2.4-2.3
		c-1.3,0-2.3,1-2.3,2.3C10.7,46,11.7,47,13,47z"/>
	<path class="st2" d="M19.3,40.2H22v1.2c0.4-0.9,1.4-1.4,2.6-1.4c0.3,0,0.6,0,0.7,0.1v2.5c-0.3-0.1-0.6-0.1-0.9-0.1
		c-1.5,0-2.4,0.9-2.4,2.4v4.4h-2.7V40.2z"/>
	<path class="st2" d="M25.2,46.8c0-1.9,1.2-2.8,4.3-3.3c1.3-0.2,1.5-0.2,1.5-0.6v-0.1c0-0.4-0.3-0.8-1.4-0.8c-1,0-1.9,0.5-2.6,1.2
		l-1.4-1.5c1-1.2,2.4-1.9,4.1-1.9c2.6,0,4,1.1,4,3.1v3.3c0,0.7,0.3,0.7,0.7,0.7h0.1v2.1c-0.3,0.2-0.7,0.2-1.1,0.2
		c-0.8,0-1.1-0.2-1.3-0.4c-0.2-0.2-0.3-0.4-0.4-0.6c-0.7,0.8-1.9,1.1-3.2,1.1C26.4,49.5,25.2,48.5,25.2,46.8z M31.1,45.9v-0.8
		c-0.3,0.2-0.9,0.3-1.9,0.4c-0.9,0.2-1.4,0.4-1.4,1c0,0.5,0.4,0.8,1.1,0.8C30.2,47.4,31.1,46.9,31.1,45.9z"/>
	<path class="st2" d="M35.6,42.6h-1.2v-2.4h1.2v-3.5h2.6v3.5h2v2.4h-2v3.2c0,0.9,0.4,1.2,1.2,1.2c0.2,0,0.5,0,0.7-0.1v2.4
		c-0.3,0.1-0.8,0.1-1.3,0.1c-1.3,0-3.1-0.4-3.1-3.2V42.6z"/>
	<path class="st2" d="M40.9,37.9c0-0.9,0.7-1.5,1.5-1.5c0.8,0,1.5,0.7,1.5,1.5c0,0.8-0.7,1.5-1.5,1.5C41.6,39.4,40.9,38.8,40.9,37.9
		z M41.1,40.2h2.7v9.1h-2.7V40.2z"/>
	<path class="st2" d="M46,46.2c0.5,0.6,1.4,1,2.5,1c1,0,1.4-0.3,1.4-0.7c0-0.6-1.2-0.7-2.6-1.1c-1.3-0.4-2.1-1.2-2.1-2.5
		c0-1.9,1.7-2.9,3.5-2.9c1.6,0,2.7,0.6,3.3,1.2l-1.3,1.8c-0.4-0.3-1.1-0.7-2.1-0.7c-0.6,0-0.9,0.3-0.9,0.6c0,0.6,0.7,0.5,2.5,1.1
		c1.6,0.6,2.2,1.4,2.2,2.6c0,1.7-1.2,3.1-4,3.1c-2,0-3.3-0.8-4-1.6L46,46.2z"/>
</g>
</svg>
