<?xml version="1.0" encoding="utf-8"?>
<!-- Generator: Adobe Illustrator 27.4.0, SVG Export Plug-In . SVG Version: 6.00 Build 0)  -->
<svg version="1.1" id="Layer_1" xmlns="http://www.w3.org/2000/svg" xmlns:xlink="http://www.w3.org/1999/xlink" x="0px" y="0px"
	 width="60px" height="60px" viewBox="0 0 60 60" style="enable-background:new 0 0 60 60;" xml:space="preserve">
<style type="text/css">
	.st0{fill:#E81D25;}
	.st1{fill:none;}
	.st2{fill:#FFFFFF;}
	.st3{fill:none;stroke:#FFFFFF;stroke-width:0.5;stroke-miterlimit:10;}
</style>
<g>
	<path class="st0" d="M58,60H2c-1.1,0-2-0.9-2-2V2c0-1.1,0.9-2,2-2h56c1.1,0,2,0.9,2,2v56C60,59.1,59.1,60,58,60z"/>
</g>
<g>
	<rect x="5" y="12.1" class="st1" width="50" height="35.9"/>
	<path class="st2" d="M5.4,28.2l8.3-8.2c0.7-0.7,1.1-1.3,1.1-2.3c0-1.3-1.1-2.3-2.4-2.3c-1.4,0-2.5,1.2-2.5,2.7H6.1
		c0-3.5,2.8-6.3,6.3-6.3c3.4,0,6.1,2.6,6.1,5.9c0,1.8-0.9,3.4-2.4,4.9l-4.6,4.6h7.3V31H5.4V28.2z"/>
	<path class="st2" d="M23.3,25.4c0.6,1.2,1.8,2,3.3,2c1.9,0,3.2-1.2,3.2-2.9c0-1.7-1.2-2.9-3.1-2.9c-0.8,0-1.8,0.2-2.3,0.8l-3-0.8
		l1.9-9.5h9.4v3.8h-6.4l-0.5,2.6c0.5-0.2,1.1-0.2,1.6-0.2c4,0,6.6,2.5,6.6,6.3c0,4-2.9,6.6-7.3,6.6c-2.9,0-5.5-1.5-6.6-3.8
		L23.3,25.4z"/>
	<path class="st2" d="M34.4,16c0-2.3,1.9-4.2,4.3-4.2c2.4,0,4.3,1.8,4.3,4.2c0,2.3-1.9,4.2-4.3,4.2C36.3,20.1,34.4,18.3,34.4,16z
		 M48.5,12.2h3.7L39.4,31h-3.7L48.5,12.2z M40,16c0-0.8-0.6-1.4-1.3-1.4c-0.8,0-1.3,0.6-1.3,1.4c0,0.8,0.6,1.4,1.3,1.4
		C39.4,17.4,40,16.8,40,16z M49.3,23c2.4,0,4.3,1.8,4.3,4.2s-1.9,4.2-4.3,4.2c-2.4,0-4.3-1.8-4.3-4.2S46.9,23,49.3,23z M49.3,28.6
		c0.7,0,1.3-0.6,1.3-1.4c0-0.8-0.6-1.4-1.3-1.4c-0.8,0-1.3,0.6-1.3,1.4C47.9,27.9,48.5,28.6,49.3,28.6z"/>
	<path class="st2" d="M5.7,34.7h2.2v5.7l2.4-2.8h2.5l-3,3.4l3.2,4.1h-2.5l-2.1-2.7l-0.6,0.7V45H5.7V34.7z"/>
	<path class="st2" d="M17.1,37.3c2.3,0,4.1,1.7,4.1,3.9s-1.8,3.9-4.1,3.9c-2.3,0-4.1-1.7-4.1-3.9S14.8,37.3,17.1,37.3z M17.1,43.2
		c1.1,0,1.9-0.9,1.9-1.9c0-1.1-0.9-1.9-1.9-1.9c-1.1,0-1.9,0.9-1.9,1.9C15.1,42.4,16,43.2,17.1,43.2z"/>
	<path class="st2" d="M22.3,37.6h2.2v1c0.3-0.8,1.1-1.2,2.1-1.2c0.2,0,0.5,0,0.6,0v2.1c-0.2,0-0.5-0.1-0.7-0.1c-1.2,0-2,0.7-2,1.9
		V45h-2.2V37.6z"/>
	<path class="st2" d="M28.8,39.5h-1v-2h1v-2.8h2.1v2.8h1.6v2h-1.6v2.6c0,0.7,0.3,1,0.9,1c0.2,0,0.4,0,0.6-0.1v1.9
		c-0.2,0.1-0.7,0.1-1.1,0.1c-1.1,0-2.6-0.3-2.6-2.6V39.5z"/>
	<path class="st2" d="M33.3,35.7c0-0.7,0.6-1.2,1.2-1.2c0.7,0,1.2,0.5,1.2,1.2c0,0.7-0.6,1.2-1.2,1.2C33.9,36.9,33.3,36.4,33.3,35.7
		z M33.5,37.6h2.2V45h-2.2V37.6z"/>
	<path class="st2" d="M37.2,37.6h2.2v0.9c0.3-0.6,1.1-1.1,2.2-1.1c1.8,0,2.8,1.2,2.8,3.1V45h-2.2v-4.2c0-0.9-0.5-1.4-1.4-1.4
		c-0.8,0-1.5,0.6-1.5,1.5V45h-2.2V37.6z"/>
	<path class="st2" d="M49.1,37.4c1.1,0,2,0.5,2.2,1.1v-1h2.2v6.2c0,1.5-0.2,2.8-1.3,3.6c-0.7,0.5-1.6,0.9-2.7,0.9
		c-1.4,0-2.6-0.3-3.6-1l1-1.6c0.7,0.4,1.4,0.7,2.3,0.7c0.6,0,1.1-0.1,1.5-0.4c0.6-0.4,0.6-1.1,0.6-1.6v-0.2C51,44.6,50.2,45,49.1,45
		c-2.1,0-3.7-1.6-3.7-3.7C45.4,39.1,47,37.4,49.1,37.4z M49.5,43.1c1.1,0,1.9-0.8,1.9-1.8c0-1-0.9-1.9-1.9-1.9
		c-1.1,0-1.9,0.8-1.9,1.9C47.6,42.3,48.4,43.1,49.5,43.1z"/>
</g>
</svg>
