<?xml version="1.0" encoding="utf-8"?>
<!-- Generator: Adobe Illustrator 27.4.0, SVG Export Plug-In . SVG Version: 6.00 Build 0)  -->
<svg version="1.1" id="Layer_1" xmlns="http://www.w3.org/2000/svg" xmlns:xlink="http://www.w3.org/1999/xlink" x="0px" y="0px"
	 width="60px" height="60px" viewBox="0 0 60 60" style="enable-background:new 0 0 60 60;" xml:space="preserve">
<style type="text/css">
	.st0{fill:#E81D25;}
	.st1{fill:none;}
	.st2{fill:#FFFFFF;}
	.st3{fill:none;stroke:#FFFFFF;stroke-width:0.5;stroke-miterlimit:10;}
</style>
<g>
	<path class="st0" d="M58,60H2c-1.1,0-2-0.9-2-2V2c0-1.1,0.9-2,2-2h56c1.1,0,2,0.9,2,2v56C60,59.1,59.1,60,58,60z"/>
</g>
<g>
	<rect x="5" y="14.1" class="st1" width="50" height="31.9"/>
	<path class="st2" d="M6.1,25.6l5.6-11.5h3.9l-5.3,10.8h4.5v-3.3h3.8v9.9h-3.8v-3.2H6.1V25.6z"/>
	<path class="st2" d="M21.2,22.8c0-2,0-2.8,0.1-3.6c0.3-3.2,2.9-5.3,6.4-5.3s6.1,2.1,6.4,5.3c0.1,0.8,0.1,1.6,0.1,3.6
		c0,2,0,2.8-0.1,3.6c-0.3,3.2-2.9,5.3-6.4,5.3s-6.1-2.1-6.4-5.3C21.2,25.6,21.2,24.8,21.2,22.8z M27.8,28.3c1.4,0,2.5-0.9,2.6-2.3
		c0-0.6,0.1-1.5,0.1-3.2c0-1.8,0-2.5,0-3.1c-0.1-1.4-1.2-2.4-2.6-2.4s-2.5,0.9-2.6,2.4c-0.1,0.6-0.1,1.3-0.1,3.1
		c0,1.7,0,2.6,0.1,3.2C25.3,27.4,26.3,28.3,27.8,28.3z"/>
	<path class="st2" d="M35.9,17.6c0-2.1,1.8-3.8,4-3.8c2.2,0,4,1.7,4,3.8s-1.8,3.8-4,3.8C37.7,21.5,35.9,19.8,35.9,17.6z M49,14.1
		h3.4L40.5,31.5h-3.4L49,14.1z M41.1,17.6c0-0.7-0.5-1.3-1.2-1.3c-0.7,0-1.2,0.6-1.2,1.3c0,0.8,0.5,1.3,1.2,1.3
		C40.6,19,41.1,18.4,41.1,17.6z M49.7,24.1c2.2,0,3.9,1.7,3.9,3.8c0,2.2-1.7,3.8-3.9,3.8c-2.2,0-4-1.7-4-3.8
		C45.7,25.8,47.5,24.1,49.7,24.1z M49.7,29.3c0.7,0,1.2-0.6,1.2-1.3c0-0.7-0.5-1.3-1.2-1.3c-0.7,0-1.2,0.6-1.2,1.3
		C48.5,28.7,49,29.3,49.7,29.3z"/>
	<path class="st2" d="M5.7,35.3h2.2v5.7l2.4-2.8h2.5l-3,3.4l3.2,4.1h-2.5l-2.1-2.7l-0.6,0.7v2.1H5.7V35.3z"/>
	<path class="st2" d="M17.1,37.9c2.3,0,4.1,1.7,4.1,3.9s-1.8,3.9-4.1,3.9c-2.3,0-4.1-1.7-4.1-3.9S14.8,37.9,17.1,37.9z M17.1,43.7
		c1.1,0,1.9-0.9,1.9-1.9c0-1.1-0.9-1.9-1.9-1.9c-1.1,0-1.9,0.9-1.9,1.9C15.1,42.9,16,43.7,17.1,43.7z"/>
	<path class="st2" d="M22.3,38.1h2.2v1c0.3-0.8,1.1-1.2,2.1-1.2c0.2,0,0.5,0,0.6,0V40C27,40,26.8,40,26.5,40c-1.2,0-2,0.7-2,1.9v3.6
		h-2.2V38.1z"/>
	<path class="st2" d="M28.8,40.1h-1v-2h1v-2.8h2.1v2.8h1.6v2h-1.6v2.6c0,0.7,0.3,1,0.9,1c0.2,0,0.4,0,0.6-0.1v1.9
		c-0.2,0.1-0.7,0.1-1.1,0.1c-1.1,0-2.6-0.3-2.6-2.6V40.1z"/>
	<path class="st2" d="M33.3,36.2c0-0.7,0.6-1.2,1.2-1.2c0.7,0,1.2,0.5,1.2,1.2c0,0.7-0.6,1.2-1.2,1.2C33.9,37.5,33.3,36.9,33.3,36.2
		z M33.5,38.1h2.2v7.4h-2.2V38.1z"/>
	<path class="st2" d="M37.2,38.1h2.2V39c0.3-0.6,1.1-1.1,2.2-1.1c1.8,0,2.8,1.2,2.8,3.1v4.5h-2.2v-4.2c0-0.9-0.5-1.4-1.4-1.4
		c-0.8,0-1.5,0.6-1.5,1.5v4.2h-2.2V38.1z"/>
	<path class="st2" d="M49.1,38c1.1,0,2,0.5,2.2,1.1v-1h2.2v6.2c0,1.5-0.2,2.8-1.3,3.6c-0.7,0.5-1.6,0.9-2.7,0.9
		c-1.4,0-2.6-0.3-3.6-1l1-1.6c0.7,0.4,1.4,0.7,2.3,0.7c0.6,0,1.1-0.1,1.5-0.4c0.6-0.4,0.6-1.1,0.6-1.6v-0.2
		c-0.3,0.5-1.2,0.9-2.3,0.9c-2.1,0-3.7-1.6-3.7-3.7C45.4,39.7,47,38,49.1,38z M49.5,43.6c1.1,0,1.9-0.8,1.9-1.8c0-1-0.9-1.9-1.9-1.9
		c-1.1,0-1.9,0.8-1.9,1.9C47.6,42.8,48.4,43.6,49.5,43.6z"/>
</g>
</svg>
