<?xml version="1.0" encoding="utf-8"?>
<!-- Generator: Adobe Illustrator 27.8.0, SVG Export Plug-In . SVG Version: 6.00 Build 0)  -->
<svg version="1.1" id="Layer_1" xmlns="http://www.w3.org/2000/svg" xmlns:xlink="http://www.w3.org/1999/xlink" x="0px" y="0px"
	 width="60px" height="60px" viewBox="0 0 60 60" style="enable-background:new 0 0 60 60;" xml:space="preserve">
<style type="text/css">
	.st0{fill:#E81D25;}
	.st1{fill:none;}
	.st2{fill:#FFFFFF;}
	.st3{fill:none;stroke:#FFFFFF;stroke-width:0.5;stroke-miterlimit:10;}
</style>
<g>
	<path class="st1" d="M29.3,36.5c1.1,0,2,0.9,2,2"/>
	<path d="M33.7,28.7l0.5,0.3l-2.1,3.7l1.7,1l-0.3,0.4l-2.3-1.3L33.7,28.7z"/>
</g>
<g>
	<path class="st0" d="M58,60H2c-1.1,0-2-0.9-2-2V2c0-1.1,0.9-2,2-2h56c1.1,0,2,0.9,2,2v56C60,59.1,59.1,60,58,60z"/>
</g>
<g>
	<rect x="3" y="17.5" class="st1" width="54" height="25"/>
	<path class="st2" d="M11.3,31.8c0.6,1.3,1.9,2.2,3.5,2.2c2.1,0,3.5-1.2,3.5-3.1c0-1.9-1.3-3.1-3.3-3.1c-0.9,0-1.9,0.3-2.5,0.9
		l-3.3-0.9l2-10.2h10.1v4.1h-6.9l-0.6,2.8c0.5-0.2,1.1-0.3,1.8-0.3c4.3,0,7.1,2.7,7.1,6.8c0,4.3-3.2,7.1-7.9,7.1
		c-3.2,0-5.9-1.7-7.1-4.1L11.3,31.8z"/>
	<path class="st2" d="M27.5,31.8c0.6,1.3,1.9,2.2,3.5,2.2c2.1,0,3.5-1.2,3.5-3.1c0-1.9-1.3-3.1-3.3-3.1c-0.9,0-1.9,0.3-2.5,0.9
		l-3.3-0.9l2-10.2h10.1v4.1h-6.9L30,24.3c0.5-0.2,1.1-0.3,1.8-0.3c4.3,0,7.1,2.7,7.1,6.8c0,4.3-3.2,7.1-7.9,7.1
		c-3.2,0-5.9-1.7-7.1-4.1L27.5,31.8z"/>
	<path class="st2" d="M42.9,33.3c1.3,0,2.4,1,2.4,2.3c0,1.3-1.1,2.3-2.4,2.3s-2.4-1-2.4-2.3C40.5,34.3,41.6,33.3,42.9,33.3z
		 M41.2,25.8h10.4v3.9H41.2V25.8z"/>
</g>
<line class="st3" x1="38.5" y1="54.5" x2="54.5" y2="46.5"/>
<g>
	<rect x="19.6" y="46.1" class="st1" width="35.5" height="8.9"/>
	<path class="st2" d="M40.9,51.5c-0.2,0.1-0.5,0.1-0.7,0.1c-1.4,0-2.8-1.1-2.8-2.7c0-1.6,1.3-2.9,2.8-2.9c1.7,0,2.8,1.3,2.8,2.8
		c0,1-0.5,1.8-1.2,2.8c0,0.1-0.1,0.1-1.9,2.9h-1.1L40.9,51.5z M42.3,48.8c0-1.1-0.9-2-2-2s-2,0.9-2,2c0,1.1,0.9,2,2,2
		C41.5,50.7,42.3,49.9,42.3,48.8z"/>
	<path class="st2" d="M44.1,50.3c0-1,0-1.4,0-1.8c0.2-1.6,1.2-2.6,2.8-2.6c1.6,0,2.6,0.9,2.8,2.6c0,0.4,0,0.8,0,1.8c0,1,0,1.4,0,1.8
		c-0.2,1.6-1.2,2.6-2.8,2.6c-1.6,0-2.6-0.9-2.8-2.6C44.1,51.7,44.1,51.3,44.1,50.3z M47,53.8c1.1,0,1.8-0.6,1.9-1.7
		c0-0.3,0-0.8,0-1.7s0-1.4,0-1.7c-0.1-1.1-0.8-1.7-1.9-1.7s-1.8,0.6-1.9,1.7c0,0.3,0,0.7,0,1.7s0,1.4,0,1.7
		C45.1,53.1,45.9,53.8,47,53.8z"/>
	<path class="st2" d="M51.5,53.4c0.3,0,0.6,0.3,0.6,0.6s-0.3,0.6-0.6,0.6c-0.3,0-0.6-0.3-0.6-0.6S51.1,53.4,51.5,53.4z M50.9,49.9
		h3.6v0.8h-3.6V49.9z"/>
</g>
</svg>
