<?xml version="1.0" encoding="utf-8"?>
<!-- Generator: Adobe Illustrator 28.1.0, SVG Export Plug-In . SVG Version: 6.00 Build 0)  -->
<svg version="1.1" id="Layer_1" xmlns="http://www.w3.org/2000/svg" xmlns:xlink="http://www.w3.org/1999/xlink" x="0px" y="0px"
	 width="60px" height="60px" viewBox="0 0 60 60" style="enable-background:new 0 0 60 60;" xml:space="preserve">
<style type="text/css">
	.st0{fill:#E81D25;}
	.st1{fill:none;}
	.st2{fill:#FFFFFF;}
	.st3{fill:none;stroke:#FFFFFF;stroke-width:0.5;stroke-miterlimit:10;}
</style>
<g>
	<path class="st0" d="M58,60H2c-1.1,0-2-0.9-2-2V2c0-1.1,0.9-2,2-2h56c1.1,0,2,0.9,2,2v56C60,59.1,59.1,60,58,60z"/>
</g>
<g>
	<rect x="19.6" y="46.1" class="st1" width="35.5" height="8.9"/>
	<path class="st2" d="M31.1,53.9l3.8-4.2c0.4-0.4,0.6-0.9,0.6-1.3c0-0.8-0.7-1.5-1.5-1.5s-1.5,0.7-1.5,1.5h-0.9
		c0-1.3,1.1-2.4,2.4-2.4c1.3,0,2.4,1.1,2.4,2.4c0,0.5-0.1,1.2-0.9,2l-3,3.3h4.1v0.9h-5.4V53.9z"/>
	<path class="st2" d="M37.4,50.3c0-1,0-1.4,0-1.8c0.2-1.6,1.2-2.6,2.8-2.6c1.6,0,2.6,0.9,2.8,2.6c0,0.4,0,0.8,0,1.8c0,1,0,1.4,0,1.8
		c-0.2,1.6-1.2,2.6-2.8,2.6c-1.6,0-2.6-0.9-2.8-2.6C37.4,51.7,37.4,51.3,37.4,50.3z M40.3,53.8c1.1,0,1.8-0.6,1.9-1.7
		c0-0.3,0-0.8,0-1.7s0-1.4,0-1.7c-0.1-1.1-0.8-1.7-1.9-1.7s-1.8,0.6-1.9,1.7c0,0.3,0,0.7,0,1.7s0,1.4,0,1.7
		C38.5,53.1,39.2,53.8,40.3,53.8z"/>
	<path class="st2" d="M44.1,50.3c0-1,0-1.4,0-1.8c0.2-1.6,1.2-2.6,2.8-2.6c1.6,0,2.6,0.9,2.8,2.6c0,0.4,0,0.8,0,1.8c0,1,0,1.4,0,1.8
		c-0.2,1.6-1.2,2.6-2.8,2.6c-1.6,0-2.6-0.9-2.8-2.6C44.1,51.7,44.1,51.3,44.1,50.3z M47,53.8c1.1,0,1.8-0.6,1.9-1.7
		c0-0.3,0-0.8,0-1.7s0-1.4,0-1.7c-0.1-1.1-0.8-1.7-1.9-1.7s-1.8,0.6-1.9,1.7c0,0.3,0,0.7,0,1.7s0,1.4,0,1.7
		C45.1,53.1,45.9,53.8,47,53.8z"/>
	<path class="st2" d="M51.5,53.4c0.3,0,0.6,0.3,0.6,0.6s-0.3,0.6-0.6,0.6s-0.6-0.3-0.6-0.6S51.1,53.4,51.5,53.4z M50.9,49.9h3.6v0.8
		h-3.6V49.9z"/>
</g>
<g>
	<path class="st2" d="M6.5,22.9H4v-3.5h6.4v17.4H6.5V22.9z"/>
	<path class="st2" d="M15.1,31.8c0.7,1.2,1.9,1.8,3.4,1.8c1.7,0,3.1-1,3.1-2.5c0-1.4-1.2-2.4-3.3-2.4c-0.6,0-1.3,0.1-1.9,0.2l-1.2-2
		l4.5-3.9h-6v-3.5h11.1v2.7l-4,3.6h0c3,0.3,4.7,2.5,4.7,5.1c0,3.4-2.6,6.1-6.8,6.1c-2.9,0-5.3-1.3-6.5-3.4L15.1,31.8z"/>
	<path class="st2" d="M32.7,31.3c-0.1,0.1-0.4,0.1-0.7,0.1c-2.3,0-5.7-2.1-5.7-5.9c0-3.4,2.9-6.2,6.6-6.2c3.7,0,6.5,2.8,6.5,6.2
		c0,2-1.1,3.7-2.6,6l-3.6,5.4H29L32.7,31.3z M35.6,25.4c0-1.5-1.2-2.7-2.7-2.7c-1.5,0-2.7,1.2-2.7,2.7c0,1.5,1.2,2.7,2.7,2.7
		C34.5,28.2,35.6,26.9,35.6,25.4z"/>
	<path class="st2" d="M40.5,33c1.1,0,2,0.9,2,2c0,1.1-0.9,2-2,2s-2-0.9-2-2C38.5,33.9,39.4,33,40.5,33z"/>
	<path class="st2" d="M44.6,26.9c-0.1,0-0.3,0.1-0.4,0.1c-1.5,0-3.5-1.3-3.5-3.7c0-2.1,1.8-3.9,4.1-3.9c2.3,0,4,1.7,4,3.8
		c0,1.3-0.7,2.3-1.6,3.7l-2.2,3.4h-2.6L44.6,26.9z M46.4,23.3c0-0.9-0.8-1.7-1.7-1.7S43,22.4,43,23.3c0,0.9,0.8,1.7,1.7,1.7
		C45.7,25,46.4,24.2,46.4,23.3z"/>
	<path class="st2" d="M50.9,27.2c0.3,0.7,1,1.2,1.9,1.2c1.1,0,1.8-0.7,1.8-1.7c0-1-0.7-1.7-1.8-1.7c-0.5,0-1,0.1-1.3,0.5l-1.8-0.5
		l1.1-5.5h5.4v2.2h-3.7l-0.3,1.5c0.3-0.1,0.6-0.1,0.9-0.1c2.3,0,3.8,1.5,3.8,3.6c0,2.3-1.7,3.8-4.2,3.8c-1.7,0-3.1-0.9-3.8-2.2
		L50.9,27.2z"/>
</g>
<line class="st3" x1="31.1" y1="55" x2="55" y2="47.9"/>
<g>
</g>
<g>
</g>
<g>
</g>
<g>
</g>
<g>
</g>
<g>
</g>
<g>
</g>
<g>
</g>
<g>
</g>
<g>
</g>
<g>
</g>
<g>
</g>
<g>
</g>
<g>
</g>
<g>
</g>
</svg>
