<?xml version="1.0" encoding="utf-8"?>
<!-- Generator: Adobe Illustrator 28.1.0, SVG Export Plug-In . SVG Version: 6.00 Build 0)  -->
<svg version="1.1" id="Layer_1" xmlns="http://www.w3.org/2000/svg" xmlns:xlink="http://www.w3.org/1999/xlink" x="0px" y="0px"
	 width="60px" height="60px" viewBox="0 0 60 60" style="enable-background:new 0 0 60 60;" xml:space="preserve">
<style type="text/css">
	.st0{fill:#E81D25;}
	.st1{fill:none;}
	.st2{fill:#FFFFFF;}
	.st3{fill:none;stroke:#FFFFFF;stroke-width:0.5;stroke-miterlimit:10;}
</style>
<g>
	<path class="st0" d="M58,60H2c-1.1,0-2-0.9-2-2V2c0-1.1,0.9-2,2-2h56c1.1,0,2,0.9,2,2v56C60,59.1,59.1,60,58,60z"/>
</g>
<g>
	<rect x="4" y="17.5" class="st1" width="56" height="25"/>
	<path class="st2" d="M7.8,26.1c-0.9-0.7-1.5-1.8-1.5-3.2c0-3.2,2.8-5.8,6.1-5.8c3.4,0,6.2,2.6,6.2,5.8c0,1.4-0.6,2.4-1.5,3.2
		c1.7,0.9,2.9,2.8,2.9,5c0,3.8-3.4,6.9-7.5,6.9c-4.1,0-7.5-3.1-7.5-6.9C4.9,28.8,6.1,27,7.8,26.1z M12.4,33.9c1.7,0,3.1-1.3,3.1-2.9
		c0-1.5-1.4-2.9-3.1-2.9c-1.7,0-3,1.3-3,2.9C9.4,32.7,10.8,33.9,12.4,33.9z M14.5,22.9c0-1.1-0.9-1.9-2.1-1.9
		c-1.1,0-2.1,0.8-2.1,1.9c0,1.1,0.9,2,2.1,2C13.6,24.9,14.5,24,14.5,22.9z"/>
	<path class="st2" d="M28.3,31.2c-0.2,0.1-0.5,0.1-0.8,0.1c-2.7,0-6.6-2.4-6.6-6.9c0-4,3.4-7.3,7.6-7.3c4.3,0,7.6,3.2,7.6,7.2
		c0,2.4-1.2,4.4-3,7l-4.2,6.3h-4.9L28.3,31.2z M31.6,24.4c0-1.8-1.5-3.2-3.2-3.2c-1.7,0-3.2,1.4-3.2,3.2c0,1.7,1.4,3.2,3.2,3.2
		C30.3,27.6,31.6,26.2,31.6,24.4z"/>
	<path class="st2" d="M37.3,33.3c1.3,0,2.4,1,2.4,2.3c0,1.3-1.1,2.3-2.4,2.3c-1.3,0-2.4-1-2.4-2.3C34.9,34.3,36,33.3,37.3,33.3z"/>
	<path class="st2" d="M41.6,26.2c-0.1,0.1-0.3,0.1-0.5,0.1c-1.7,0-4.1-1.5-4.1-4.3c0-2.5,2.1-4.5,4.7-4.5c2.7,0,4.7,2,4.7,4.5
		c0,1.5-0.8,2.7-1.9,4.4l-2.6,3.9h-3L41.6,26.2z M43.7,22c0-1.1-0.9-2-2-2c-1.1,0-2,0.9-2,2c0,1.1,0.9,2,2,2
		C42.9,23.9,43.7,23,43.7,22z"/>
	<path class="st2" d="M52,26.2c-0.1,0.1-0.3,0.1-0.5,0.1c-1.7,0-4.1-1.5-4.1-4.3c0-2.5,2.1-4.5,4.7-4.5c2.7,0,4.7,2,4.7,4.5
		c0,1.5-0.8,2.7-1.9,4.4l-2.6,3.9h-3L52,26.2z M54.1,22c0-1.1-0.9-2-2-2s-2,0.9-2,2c0,1.1,0.9,2,2,2C53.3,23.9,54.1,23,54.1,22z"/>
</g>
<g>
	<rect x="19.6" y="46.1" class="st1" width="35.5" height="8.9"/>
	<path class="st2" d="M32.4,47h-1.2v-0.9h2.1v8.4h-0.9V47z"/>
	<path class="st2" d="M35.1,52l2.9-5.9h1l-2.8,5.6h3.3v-1.8h0.9v4.5h-0.9v-1.9h-4.4V52z"/>
	<path class="st2" d="M44.9,51.5c-0.2,0.1-0.5,0.1-0.7,0.1c-1.4,0-2.8-1.1-2.8-2.7c0-1.6,1.3-2.9,2.8-2.9c1.7,0,2.8,1.3,2.8,2.8
		c0,1-0.5,1.8-1.2,2.8c0,0.1-0.1,0.1-1.9,2.9h-1.1L44.9,51.5z M46.2,48.8c0-1.1-0.9-2-2-2s-2,0.9-2,2c0,1.1,0.9,2,2,2
		C45.5,50.7,46.2,49.9,46.2,48.8z"/>
	<path class="st2" d="M47.7,53.4c0.3,0,0.6,0.3,0.6,0.6s-0.3,0.6-0.6,0.6c-0.3,0-0.6-0.3-0.6-0.6S47.4,53.4,47.7,53.4z"/>
	<path class="st2" d="M49.8,48.7c-0.1,0-0.3,0.1-0.4,0.1c-0.8,0-1.6-0.6-1.6-1.6c0-1,0.8-1.7,1.7-1.7c1,0,1.7,0.8,1.7,1.7
		c0,0.6-0.3,1-0.7,1.6c0,0,0,0.1-1.1,1.7h-0.6L49.8,48.7z M50.5,47.2c0-0.6-0.5-1.1-1.1-1.1s-1.1,0.5-1.1,1.1s0.5,1.1,1.1,1.1
		C50.1,48.3,50.5,47.8,50.5,47.2z"/>
	<path class="st2" d="M53.7,48.7c-0.1,0-0.3,0.1-0.4,0.1c-0.8,0-1.6-0.6-1.6-1.6c0-1,0.8-1.7,1.7-1.7c1,0,1.7,0.8,1.7,1.7
		c0,0.6-0.3,1-0.7,1.6c0,0,0,0.1-1.1,1.7h-0.6L53.7,48.7z M54.4,47.2c0-0.6-0.5-1.1-1.1-1.1s-1.1,0.5-1.1,1.1s0.5,1.1,1.1,1.1
		C54,48.3,54.4,47.8,54.4,47.2z"/>
</g>
<line class="st3" x1="31" y1="53.2" x2="56.3" y2="47.6"/>
<g>
</g>
<g>
</g>
<g>
</g>
<g>
</g>
<g>
</g>
<g>
</g>
<g>
</g>
<g>
</g>
<g>
</g>
<g>
</g>
<g>
</g>
<g>
</g>
<g>
</g>
<g>
</g>
<g>
</g>
</svg>
