<?xml version="1.0" encoding="utf-8"?>
<!-- Generator: Adobe Illustrator 27.8.1, SVG Export Plug-In . SVG Version: 6.00 Build 0)  -->
<svg version="1.1" id="Layer_1" xmlns="http://www.w3.org/2000/svg" xmlns:xlink="http://www.w3.org/1999/xlink" x="0px" y="0px"
	 width="60px" height="60px" viewBox="0 0 60 60" style="enable-background:new 0 0 60 60;" xml:space="preserve">
<style type="text/css">
	.st0{fill:#E81D25;}
	.st1{fill:none;}
	.st2{fill:#FFFFFF;}
	.st3{fill:#323232;}
</style>
<g>
	<path class="st0" d="M58,60H2c-1.1,0-2-0.9-2-2V2c0-1.1,0.9-2,2-2h56c1.1,0,2,0.9,2,2v56C60,59.1,59.1,60,58,60z"/>
</g>
<g>
	<rect x="6.5" y="11" class="st1" width="47" height="37.9"/>
	<path class="st2" d="M7.3,14.1h2.4v1c0.3-0.7,1.2-1.2,2.4-1.2c2,0,3.1,1.3,3.1,3.3v4.9h-2.4v-4.6c0-0.9-0.5-1.5-1.5-1.5
		c-0.9,0-1.6,0.7-1.6,1.6v4.5H7.3V14.1z"/>
	<path class="st2" d="M16.6,14.1H19v4.6c0,1.1,0.7,1.5,1.5,1.5c0.8,0,1.5-0.4,1.5-1.5v-4.6h2.4v4.8c0,2.4-1.8,3.5-3.9,3.5
		c-2.1,0-3.9-1.1-3.9-3.5V14.1z"/>
	<path class="st2" d="M10.4,32h-3V28h7.4v20.2h-4.5V32z"/>
	<path class="st2" d="M20.4,42.3c0.8,1.4,2.2,2.1,4,2.1c2,0,3.6-1.1,3.6-2.9c0-1.6-1.4-2.8-3.9-2.8c-0.7,0-1.5,0.1-2.2,0.3l-1.4-2.3
		l5.2-4.6h-7V28h12.8v3.2l-4.7,4.2h0c3.5,0.4,5.5,2.9,5.5,6c0,4-3,7.1-7.9,7.1c-3.4,0-6.2-1.6-7.6-3.9L20.4,42.3z"/>
	<path class="st2" d="M35.8,43.8c1.3,0,2.4,1,2.4,2.3c0,1.3-1.1,2.3-2.4,2.3s-2.4-1-2.4-2.3C33.5,44.8,34.6,43.8,35.8,43.8z"/>
	<path class="st2" d="M38,34.8c-0.1,0.1-0.3,0.1-0.5,0.1c-1.6,0-3.9-1.4-3.9-4c0-2.3,2-4.2,4.4-4.2c2.5,0,4.4,1.9,4.4,4.2
		c0,1.4-0.7,2.5-1.8,4.1l-2.4,3.7h-2.9L38,34.8z M39.9,30.8c0-1-0.8-1.8-1.9-1.8s-1.8,0.8-1.8,1.8c0,1,0.8,1.9,1.8,1.9
		C39.2,32.6,39.9,31.8,39.9,30.8z"/>
	<path class="st2" d="M47.7,34.8c-0.1,0.1-0.3,0.1-0.5,0.1c-1.6,0-3.9-1.4-3.9-4c0-2.3,2-4.2,4.4-4.2c2.5,0,4.4,1.9,4.4,4.2
		c0,1.4-0.7,2.5-1.8,4.1L48,38.5h-2.9L47.7,34.8z M49.7,30.8c0-1-0.8-1.8-1.9-1.8S46,29.8,46,30.8c0,1,0.8,1.9,1.8,1.9
		C48.9,32.6,49.7,31.8,49.7,30.8z"/>
</g>
<g>
	<path class="st0" d="M58,135.2H2c-1.1,0-2-0.9-2-2v-56c0-1.1,0.9-2,2-2h56c1.1,0,2,0.9,2,2v56C60,134.3,59.1,135.2,58,135.2z"/>
</g>
<g>
	<rect x="6.5" y="86.2" class="st1" width="47" height="37.9"/>
	<path class="st2" d="M6.8,95.8l4.9-4.9c0.4-0.4,0.6-0.8,0.6-1.4c0-0.8-0.6-1.4-1.4-1.4c-0.8,0-1.5,0.7-1.5,1.6H7.2
		c0-2.1,1.7-3.7,3.7-3.7c2,0,3.6,1.6,3.6,3.5c0,1.1-0.5,2-1.4,2.9l-2.7,2.7h4.4v2.2h-8V95.8z"/>
	<path class="st2" d="M19,89.3h2.4l2.1,5.1l2.1-5.1H28l-3.5,8.1h-2.1L19,89.3z"/>
	<path class="st2" d="M32.4,89.1c2.5,0,4.5,1.9,4.5,4.3c0,2.4-2,4.3-4.5,4.3c-2.5,0-4.5-1.9-4.5-4.3C27.9,91,29.9,89.1,32.4,89.1z
		 M32.4,95.5c1.2,0,2.1-0.9,2.1-2.1c0-1.2-0.9-2.1-2.1-2.1c-1.2,0-2.1,0.9-2.1,2.1C30.3,94.5,31.2,95.5,32.4,95.5z"/>
	<path class="st2" d="M42.2,89.1c2.5,0,4.5,1.9,4.5,4.3c0,2.4-2,4.3-4.5,4.3c-2.5,0-4.5-1.9-4.5-4.3C37.7,91,39.7,89.1,42.2,89.1z
		 M42.2,95.5c1.2,0,2.1-0.9,2.1-2.1c0-1.2-0.9-2.1-2.1-2.1c-1.2,0-2.1,0.9-2.1,2.1C40.1,94.5,41,95.5,42.2,95.5z"/>
	<path class="st2" d="M48,89.3h2.4v1.1c0.4-0.8,1.2-1.3,2.3-1.3c0.2,0,0.5,0,0.6,0v2.2c-0.2,0-0.5-0.1-0.8-0.1
		c-1.4,0-2.2,0.8-2.2,2.1v3.9H48V89.3z"/>
	<path class="st2" d="M7,120.5l8.9-8.8c0.7-0.7,1.2-1.5,1.2-2.5c0-1.4-1.2-2.5-2.6-2.5c-1.5,0-2.7,1.3-2.7,2.9h-4
		c0-3.8,3-6.8,6.8-6.8c3.6,0,6.6,2.8,6.6,6.3c0,2-1,3.7-2.6,5.2l-5,4.9h7.9v4.1H7V120.5z"/>
	<path class="st2" d="M25.3,119c1.3,0,2.4,1,2.4,2.3c0,1.3-1.1,2.3-2.4,2.3s-2.4-1-2.4-2.3C22.9,120,24,119,25.3,119z"/>
	<path class="st2" d="M25.2,112.2c0.4,0.8,1.2,1.4,2.2,1.4c1.3,0,2.1-0.8,2.1-1.9c0-1.2-0.8-1.9-2.1-1.9c-0.5,0-1.2,0.2-1.6,0.5
		l-2-0.5l1.3-6.3h6.3v2.5h-4.3l-0.4,1.7c0.3-0.1,0.7-0.2,1.1-0.2c2.7,0,4.4,1.7,4.4,4.2c0,2.7-2,4.4-4.9,4.4c-2,0-3.6-1-4.4-2.5
		L25.2,112.2z"/>
	<path class="st2" d="M33.5,109.6c0-1.5,0-2,0.1-2.6c0.3-2.3,2.1-3.9,4.6-3.9s4.4,1.5,4.6,3.9c0.1,0.6,0.1,1.1,0.1,2.6
		s0,2.1-0.1,2.6c-0.3,2.3-2.1,3.9-4.6,3.9s-4.4-1.5-4.6-3.9C33.5,111.7,33.5,111.1,33.5,109.6z M38.2,113.6c1,0,1.8-0.6,1.9-1.6
		c0-0.4,0.1-1.1,0.1-2.3c0-1.3,0-1.8,0-2.2c-0.1-1-0.9-1.7-1.9-1.7s-1.8,0.7-1.9,1.7c0,0.4,0,1,0,2.2c0,1.3,0,1.9,0.1,2.3
		C36.4,112.9,37.2,113.6,38.2,113.6z"/>
</g>
<g>
	<path class="st0" d="M58,216H2c-1.1,0-2-0.9-2-2v-56c0-1.1,0.9-2,2-2h56c1.1,0,2,0.9,2,2v56C60,215.1,59.1,216,58,216z"/>
</g>
<g>
	<rect x="6.5" y="175.1" class="st1" width="47" height="20.9"/>
	<path class="st2" d="M10.2,181.3l4-6.1h4.9l-4.2,6.2c0.1-0.1,0.5-0.1,0.8-0.1c2.8,0,6.7,2.5,6.7,6.9c0,4.1-3.4,7.3-7.7,7.3
		c-4.2,0-7.6-3.2-7.6-7.3C7.2,185.9,8.5,183.9,10.2,181.3z M14.8,191.4c1.8,0,3.2-1.5,3.2-3.2c0-1.7-1.5-3.2-3.2-3.2
		c-1.8,0-3.2,1.4-3.2,3.2C11.6,190.1,13.1,191.4,14.8,191.4z"/>
	<path class="st2" d="M24.2,180.2h13.1v3.7H24.2V180.2z M24.2,186.5h13.1v3.7H24.2V186.5z"/>
	<path class="st2" d="M41.6,189.4c0.6,1.3,1.9,2.2,3.5,2.2c2.1,0,3.5-1.2,3.5-3.1c0-1.9-1.3-3.1-3.3-3.1c-0.9,0-1.9,0.3-2.5,0.9
		l-3.3-0.9l2-10.2h10.1v4.1h-6.9l-0.6,2.8c0.5-0.2,1.1-0.3,1.8-0.3c4.3,0,7.1,2.7,7.1,6.8c0,4.3-3.2,7.1-7.9,7.1
		c-3.2,0-5.9-1.7-7.1-4.1L41.6,189.4z"/>
</g>
<g>
	<path class="st0" d="M133.5,216h-56c-1.1,0-2-0.9-2-2v-56c0-1.1,0.9-2,2-2h56c1.1,0,2,0.9,2,2v56C135.5,215.1,134.6,216,133.5,216z
		"/>
</g>
<g>
	<path class="st3" d="M134.6,229H76.4c-0.5,0-0.9-0.4-0.9-0.9v-11.6h60v11.6C135.5,228.6,135.1,229,134.6,229z"/>
</g>
<g>
	<rect x="82" y="175.1" class="st1" width="47" height="20.9"/>
	<path class="st2" d="M85.8,181.3l4-6.1h4.9l-4.2,6.2c0.1-0.1,0.5-0.1,0.8-0.1c2.8,0,6.7,2.5,6.7,6.9c0,4.1-3.4,7.3-7.7,7.3
		c-4.2,0-7.6-3.2-7.6-7.3C82.7,185.9,84,183.9,85.8,181.3z M90.3,191.4c1.8,0,3.2-1.5,3.2-3.2c0-1.7-1.5-3.2-3.2-3.2
		c-1.8,0-3.2,1.4-3.2,3.2C87.2,190.1,88.6,191.4,90.3,191.4z"/>
	<path class="st2" d="M99.7,180.2h13.1v3.7H99.7V180.2z M99.7,186.5h13.1v3.7H99.7V186.5z"/>
	<path class="st2" d="M117.1,189.4c0.6,1.3,1.9,2.2,3.5,2.2c2.1,0,3.5-1.2,3.5-3.1c0-1.9-1.3-3.1-3.3-3.1c-0.9,0-1.9,0.3-2.5,0.9
		l-3.3-0.9l2-10.2h10.1v4.1h-6.9l-0.6,2.8c0.5-0.2,1.1-0.3,1.8-0.3c4.3,0,7.1,2.7,7.1,6.8c0,4.3-3.2,7.1-7.9,7.1
		c-3.2,0-5.9-1.7-7.1-4.1L117.1,189.4z"/>
</g>
<g>
	<rect x="76.4" y="219.4" class="st1" width="57.3" height="6.6"/>
	<path class="st2" d="M78.5,224.4c0-1,0.6-1.4,2.2-1.6c0.7-0.1,0.8-0.1,0.8-0.3v0c0-0.2-0.2-0.4-0.7-0.4c-0.5,0-1,0.2-1.3,0.6
		l-0.7-0.7c0.5-0.6,1.2-0.9,2.1-0.9c1.3,0,2,0.6,2,1.6v1.7c0,0.3,0.2,0.4,0.3,0.4h0v1.1c-0.2,0.1-0.3,0.1-0.5,0.1
		c-0.4,0-0.5-0.1-0.6-0.2c-0.1-0.1-0.2-0.2-0.2-0.3c-0.3,0.4-1,0.5-1.6,0.5C79.1,225.8,78.5,225.2,78.5,224.4z M81.4,224v-0.4
		c-0.1,0.1-0.5,0.1-0.9,0.2c-0.5,0.1-0.7,0.2-0.7,0.5c0,0.3,0.2,0.4,0.5,0.4C81,224.7,81.4,224.4,81.4,224z"/>
	<path class="st2" d="M83.8,219.4h1.3v6.3h-1.3V219.4z"/>
	<path class="st2" d="M86,219.4h1.3v6.3H86V219.4z"/>
	<path class="st2" d="M88.1,223.4c0-1.5,1-2.4,2.5-2.4c1.4,0,2.3,1,2.3,2.3c0,0.1,0,0.3,0,0.4h-3.4c0,0.5,0.5,0.9,1.2,0.9
		c0.5,0,0.8-0.1,1.1-0.4l0.8,0.7c-0.6,0.6-1.3,0.8-2,0.8C89.1,225.7,88.1,224.8,88.1,223.4L88.1,223.4z M91.5,222.8
		c0-0.4-0.4-0.8-1-0.8c-0.6,0-1.1,0.3-1.1,0.8H91.5z"/>
	<path class="st2" d="M93.3,223.4c0-1.5,1-2.4,2.5-2.4c1.4,0,2.3,1,2.3,2.3c0,0.1,0,0.3,0,0.4h-3.4c0,0.5,0.5,0.9,1.2,0.9
		c0.5,0,0.8-0.1,1.1-0.4l0.8,0.7c-0.6,0.6-1.3,0.8-2,0.8C94.3,225.7,93.3,224.8,93.3,223.4L93.3,223.4z M96.8,222.8
		c0-0.4-0.4-0.8-1-0.8c-0.6,0-1.1,0.3-1.1,0.8H96.8z"/>
	<path class="st2" d="M98.8,221.1h1.3v0.6c0.2-0.4,0.7-0.7,1.3-0.7c1.1,0,1.7,0.7,1.7,1.9v2.8h-1.3V223c0-0.5-0.3-0.9-0.8-0.9
		c-0.5,0-0.9,0.4-0.9,0.9v2.5h-1.3V221.1z"/>
	<path class="st2" d="M108.7,221c1.4,0,2.5,1.1,2.5,2.4c0,1.3-1.1,2.4-2.5,2.4c-1.4,0-2.5-1.1-2.5-2.4
		C106.2,222,107.3,221,108.7,221z M108.7,224.6c0.7,0,1.2-0.5,1.2-1.2c0-0.7-0.5-1.2-1.2-1.2c-0.7,0-1.2,0.5-1.2,1.2
		C107.5,224,108.1,224.6,108.7,224.6z"/>
	<path class="st2" d="M111.9,221.1h1.3v0.6c0.2-0.4,0.7-0.7,1.3-0.7c1.1,0,1.7,0.7,1.7,1.9v2.8H115V223c0-0.5-0.3-0.9-0.8-0.9
		c-0.5,0-0.9,0.4-0.9,0.9v2.5h-1.3V221.1z"/>
	<path class="st2" d="M117.2,219.4h1.3v6.3h-1.3V219.4z"/>
	<path class="st2" d="M119.3,220c0-0.4,0.4-0.8,0.8-0.8c0.4,0,0.8,0.3,0.8,0.8c0,0.4-0.3,0.8-0.8,0.8
		C119.7,220.7,119.3,220.4,119.3,220z M119.4,221.1h1.3v4.5h-1.3V221.1z"/>
	<path class="st2" d="M121.7,221.1h1.3v0.6c0.2-0.4,0.7-0.7,1.3-0.7c1.1,0,1.7,0.7,1.7,1.9v2.8h-1.3V223c0-0.5-0.3-0.9-0.8-0.9
		c-0.5,0-0.9,0.4-0.9,0.9v2.5h-1.3V221.1z"/>
	<path class="st2" d="M126.7,223.4c0-1.5,1-2.4,2.5-2.4c1.4,0,2.3,1,2.3,2.3c0,0.1,0,0.3,0,0.4h-3.4c0,0.5,0.5,0.9,1.2,0.9
		c0.5,0,0.8-0.1,1.1-0.4l0.8,0.7c-0.6,0.6-1.3,0.8-2,0.8C127.7,225.7,126.7,224.8,126.7,223.4L126.7,223.4z M130.2,222.8
		c0-0.4-0.4-0.8-1-0.8c-0.6,0-1.1,0.3-1.1,0.8H130.2z"/>
</g>
<g>
	<path class="st0" d="M133.5,60h-56c-1.1,0-2-0.9-2-2V2c0-1.1,0.9-2,2-2h56c1.1,0,2,0.9,2,2v56C135.5,59.1,134.6,60,133.5,60z"/>
</g>
<g>
	<rect x="84" y="12.2" class="st1" width="56.1" height="49.7"/>
	<path class="st2" d="M84.5,29.5l8.9-8.8c0.7-0.7,1.2-1.5,1.2-2.5c0-1.4-1.2-2.5-2.6-2.5c-1.5,0-2.7,1.3-2.7,2.9h-4
		c0-3.8,3-6.8,6.8-6.8c3.6,0,6.6,2.8,6.6,6.3c0,2-1,3.7-2.6,5.2l-5,4.9h7.9v4.1H84.5V29.5z"/>
	<path class="st2" d="M102.8,28c1.3,0,2.4,1,2.4,2.3c0,1.3-1.1,2.3-2.4,2.3c-1.3,0-2.4-1-2.4-2.3C100.4,29,101.6,28,102.8,28z
		 M101.1,20.5h10.4v3.9h-10.4V20.5z"/>
	<path class="st2" d="M84.7,39h1.9v5l2.2-2.5H91l-2.6,3l2.8,3.6h-2.2l-1.9-2.4l-0.5,0.6V48h-1.9V39z"/>
	<path class="st2" d="M94.7,41.3c2,0,3.6,1.5,3.6,3.5c0,1.9-1.6,3.5-3.6,3.5c-2,0-3.6-1.5-3.6-3.5C91.1,42.8,92.7,41.3,94.7,41.3z
		 M94.7,46.5c0.9,0,1.7-0.8,1.7-1.7c0-0.9-0.8-1.7-1.7-1.7c-1,0-1.7,0.8-1.7,1.7C93,45.7,93.7,46.5,94.7,46.5z"/>
	<path class="st2" d="M99.3,41.5h1.9v0.9c0.3-0.7,1-1,1.9-1c0.2,0,0.4,0,0.5,0v1.8c-0.2,0-0.4-0.1-0.7-0.1c-1.1,0-1.8,0.6-1.8,1.7
		V48h-1.9V41.5z"/>
	<path class="st2" d="M105,43.2h-0.9v-1.8h0.9V39h1.9v2.5h1.5v1.8h-1.5v2.3c0,0.6,0.3,0.9,0.8,0.9c0.1,0,0.3,0,0.5-0.1v1.7
		c-0.2,0.1-0.6,0.1-0.9,0.1c-1,0-2.3-0.3-2.3-2.3V43.2z"/>
	<path class="st2" d="M109.1,39.8c0-0.6,0.5-1.1,1.1-1.1c0.6,0,1.1,0.5,1.1,1.1c0,0.6-0.5,1.1-1.1,1.1
		C109.6,40.9,109.1,40.4,109.1,39.8z M109.2,41.5h1.9V48h-1.9V41.5z"/>
	<path class="st2" d="M112.5,41.5h1.9v0.8c0.3-0.6,1-1,1.9-1c1.6,0,2.5,1,2.5,2.7v4h-1.9v-3.7c0-0.8-0.4-1.2-1.2-1.2
		c-0.7,0-1.3,0.5-1.3,1.3V48h-1.9V41.5z"/>
	<path class="st2" d="M123,41.4c1,0,1.8,0.4,2,1v-0.9h1.9v5.5c0,1.4-0.2,2.4-1.1,3.2c-0.6,0.5-1.5,0.8-2.4,0.8
		c-1.3,0-2.3-0.3-3.2-0.9l0.9-1.4c0.6,0.4,1.2,0.6,2,0.6c0.5,0,1-0.1,1.3-0.3c0.5-0.4,0.6-0.9,0.6-1.4v-0.1c-0.3,0.5-1,0.8-2,0.8
		c-1.9,0-3.2-1.5-3.2-3.3C119.8,42.9,121.2,41.4,123,41.4z M123.4,46.4c0.9,0,1.7-0.7,1.7-1.6c0-0.9-0.8-1.6-1.7-1.6
		c-0.9,0-1.7,0.7-1.7,1.6C121.7,45.7,122.4,46.4,123.4,46.4z"/>
</g>
<g>
	<path class="st0" d="M133.5,135.2h-56c-1.1,0-2-0.9-2-2v-56c0-1.1,0.9-2,2-2h56c1.1,0,2,0.9,2,2v56
		C135.5,134.3,134.6,135.2,133.5,135.2z"/>
</g>
<g>
	<rect x="86" y="95.2" class="st1" width="39.5" height="22.9"/>
	<path class="st2" d="M86.5,112.5l8.9-8.8c0.7-0.7,1.2-1.5,1.2-2.5c0-1.4-1.2-2.5-2.6-2.5c-1.5,0-2.7,1.3-2.7,2.9h-4
		c0-3.8,3-6.8,6.8-6.8c3.6,0,6.6,2.8,6.6,6.3c0,2-1,3.7-2.6,5.2l-5,4.9h7.9v4.1H86.5V112.5z"/>
	<path class="st2" d="M104.8,111c1.3,0,2.4,1,2.4,2.3c0,1.3-1.1,2.3-2.4,2.3s-2.4-1-2.4-2.3C102.4,112.1,103.6,111,104.8,111z"/>
	<path class="st2" d="M104.7,104.3c0.4,0.8,1.2,1.3,2.2,1.3c1.3,0,2.1-0.8,2.1-1.9c0-1.2-0.8-1.9-2.1-1.9c-0.5,0-1.2,0.2-1.6,0.5
		l-2-0.5l1.3-6.3h6.3v2.5h-4.3l-0.4,1.7c0.3-0.1,0.7-0.2,1.1-0.2c2.7,0,4.4,1.7,4.4,4.2c0,2.7-2,4.4-4.9,4.4c-2,0-3.6-1-4.4-2.5
		L104.7,104.3z"/>
	<path class="st2" d="M113,101.7c0-1.5,0-2,0.1-2.6c0.3-2.3,2.1-3.9,4.6-3.9s4.4,1.5,4.6,3.9c0.1,0.6,0.1,1.1,0.1,2.6
		c0,1.5,0,2.1-0.1,2.6c-0.3,2.3-2.1,3.9-4.6,3.9s-4.4-1.5-4.6-3.9C113,103.7,113,103.1,113,101.7z M117.7,105.6c1,0,1.8-0.6,1.9-1.6
		c0-0.4,0.1-1.1,0.1-2.3c0-1.3,0-1.8,0-2.2c-0.1-1-0.9-1.7-1.9-1.7s-1.8,0.7-1.9,1.7c0,0.4,0,1,0,2.2c0,1.3,0,1.9,0.1,2.3
		C115.9,105,116.7,105.6,117.7,105.6z"/>
</g>
<g>
</g>
<g>
</g>
<g>
</g>
<g>
</g>
<g>
</g>
<g>
</g>
<g>
</g>
<g>
</g>
<g>
</g>
<g>
</g>
<g>
</g>
<g>
</g>
<g>
</g>
<g>
</g>
<g>
</g>
</svg>
