<?xml version="1.0" encoding="utf-8"?>
<!-- Generator: Adobe Illustrator 28.1.0, SVG Export Plug-In . SVG Version: 6.00 Build 0)  -->
<svg version="1.1" id="Layer_1" xmlns="http://www.w3.org/2000/svg" xmlns:xlink="http://www.w3.org/1999/xlink" x="0px" y="0px"
	 width="60px" height="60px" viewBox="0 0 60 60" style="enable-background:new 0 0 60 60;" xml:space="preserve">
<style type="text/css">
	.st0{fill:#EE2A24;}
	.st1{fill:#FFFFFF;}
	.st2{opacity:0.33;fill:#3953A4;}
</style>
<path class="st0" d="M54.5,9.8L54.5,9.8c-6.8-6.8-17.7-6.8-24.5,0l0,0C23.2,3,12.3,3,5.5,9.8l0,0c-6.8,6.8-6.8,17.7,0,24.5
	l20.9,20.9c2,2,5.3,2,7.4,0l20.8-20.8l0,0C61.3,27.5,61.3,16.6,54.5,9.8z"/>
<g>
	<g>
		<g>
			<path class="st1" d="M22.9,23.9c0.3,0.7,1.1,1.2,1.9,1.2c1.1,0,1.9-0.7,1.9-1.7c0-1-0.7-1.7-1.8-1.7c-0.5,0-1.1,0.1-1.4,0.5
				l-1.8-0.5l1.1-5.6h5.6v2.2h-3.8l-0.3,1.5c0.3-0.1,0.6-0.1,1-0.1c2.4,0,3.9,1.5,3.9,3.7c0,2.4-1.7,3.9-4.4,3.9
				c-1.7,0-3.2-0.9-3.9-2.3L22.9,23.9z"/>
			<path class="st1" d="M30.3,21.6c0-1.3,0-1.8,0-2.3c0.2-2,1.9-3.4,4.1-3.4s3.9,1.4,4.1,3.4c0,0.5,0,1,0,2.3s0,1.8,0,2.3
				c-0.2,2-1.9,3.4-4.1,3.4s-3.9-1.4-4.1-3.4C30.3,23.4,30.3,22.9,30.3,21.6z M34.5,25.1c0.9,0,1.6-0.6,1.7-1.5c0-0.4,0-0.9,0-2.1
				c0-1.1,0-1.6,0-2c-0.1-0.9-0.8-1.5-1.7-1.5s-1.6,0.6-1.7,1.5c0,0.4,0,0.9,0,2c0,1.1,0,1.7,0,2.1C32.9,24.5,33.6,25.1,34.5,25.1z"
				/>
			<path class="st1" d="M14.7,31.1h1.4v0.6c0.1-0.4,0.7-0.7,1.4-0.7c1.4,0,2.4,1.1,2.4,2.5c0,1.4-1,2.5-2.4,2.5
				c-0.7,0-1.3-0.3-1.4-0.7v2.5h-1.4V31.1z M17.3,34.7c0.7,0,1.2-0.5,1.2-1.2c0-0.7-0.5-1.2-1.2-1.2c-0.7,0-1.3,0.5-1.3,1.2
				C16,34.2,16.6,34.7,17.3,34.7z"/>
			<path class="st1" d="M20.6,31.1h1.4v2.8c0,0.6,0.4,0.9,0.9,0.9s0.9-0.2,0.9-0.9v-2.8h1.4V34c0,1.4-1.1,2.1-2.3,2.1
				s-2.3-0.7-2.3-2.1V31.1z"/>
			<path class="st1" d="M26.2,31.1h1.4v0.6c0.2-0.4,0.7-0.7,1.4-0.7c1.2,0,1.8,0.8,1.8,2v2.9h-1.4v-2.8c0-0.6-0.3-0.9-0.9-0.9
				c-0.5,0-0.9,0.4-0.9,1v2.7h-1.4V31.1z"/>
			<path class="st1" d="M32,32.4h-0.6v-1.3H32v-1.8h1.4v1.8h1.1v1.3h-1.1v1.7c0,0.5,0.2,0.6,0.6,0.6c0.1,0,0.2,0,0.4,0v1.3
				C34.2,36,34,36,33.7,36C33,36,32,35.8,32,34.3V32.4z"/>
			<path class="st1" d="M34.9,33.5c0-1.5,1.1-2.5,2.6-2.5C39,31,40,32,40,33.4c0,0.1,0,0.3,0,0.5h-3.6c0,0.6,0.5,0.9,1.3,0.9
				c0.5,0,0.8-0.2,1.2-0.5l0.8,0.8C39,35.8,38.3,36,37.5,36C36,36,34.9,35,34.9,33.5L34.9,33.5z M38.5,32.9c0-0.4-0.5-0.8-1-0.8
				c-0.6,0-1.1,0.4-1.2,0.8H38.5z"/>
			<path class="st1" d="M40.7,31.1h1.4v0.6c0.2-0.4,0.7-0.7,1.4-0.7c1.2,0,1.8,0.8,1.8,2v2.9h-1.4v-2.8c0-0.6-0.3-0.9-0.9-0.9
				c-0.5,0-0.9,0.4-0.9,1v2.7h-1.4V31.1z"/>
		</g>
	</g>
</g>
</svg>
