<?xml version="1.0" encoding="utf-8"?>
<!-- Generator: Adobe Illustrator 28.1.0, SVG Export Plug-In . SVG Version: 6.00 Build 0)  -->
<svg version="1.1" id="Layer_1" xmlns="http://www.w3.org/2000/svg" xmlns:xlink="http://www.w3.org/1999/xlink" x="0px" y="0px"
	 width="60px" height="60px" viewBox="0 0 60 60" style="enable-background:new 0 0 60 60;" xml:space="preserve">
<style type="text/css">
	.st0{fill:#E81D25;}
	.st1{fill:none;}
	.st2{fill:#FFFFFF;}
	.st3{fill:none;stroke:#FFFFFF;stroke-width:0.5;stroke-miterlimit:10;}
</style>
<g>
	<path class="st0" d="M58,60H2c-1.1,0-2-0.9-2-2V2c0-1.1,0.9-2,2-2h56c1.1,0,2,0.9,2,2v56C60,59.1,59.1,60,58,60z"/>
</g>
<g>
	<rect x="19.6" y="46.1" class="st1" width="35.5" height="8.9"/>
	<path class="st2" d="M31.4,47h-1.2v-0.9h2.1v8.4h-0.9V47z"/>
	<path class="st2" d="M38.5,47h-4.6v-0.9h5.7v0.6l-3.8,7.7h-1L38.5,47z"/>
	<path class="st2" d="M43.7,51.5c-0.2,0.1-0.5,0.1-0.7,0.1c-1.4,0-2.8-1.1-2.8-2.7c0-1.6,1.3-2.9,2.8-2.9c1.7,0,2.8,1.3,2.8,2.8
		c0,1-0.5,1.8-1.2,2.8c0,0.1-0.1,0.1-1.9,2.9h-1.1L43.7,51.5z M45,48.8c0-1.1-0.9-2-2-2s-2,0.9-2,2c0,1.1,0.9,2,2,2
		C44.3,50.7,45,49.9,45,48.8z"/>
	<path class="st2" d="M46.4,53.4c0.3,0,0.6,0.3,0.6,0.6s-0.3,0.6-0.6,0.6c-0.3,0-0.6-0.3-0.6-0.6S46.1,53.4,46.4,53.4z"/>
	<path class="st2" d="M49.8,48.7c-0.1,0-0.3,0.1-0.4,0.1c-0.8,0-1.6-0.6-1.6-1.6c0-1,0.8-1.7,1.7-1.7c1,0,1.7,0.8,1.7,1.7
		c0,0.6-0.3,1-0.7,1.6c0,0,0,0.1-1.1,1.7h-0.6L49.8,48.7z M50.6,47.2c0-0.6-0.5-1.1-1.1-1.1s-1.1,0.5-1.1,1.1s0.5,1.1,1.1,1.1
		C50.2,48.3,50.6,47.8,50.6,47.2z"/>
	<path class="st2" d="M51.9,49.4c0.2,0.4,0.6,0.7,1.1,0.7c0.8,0,1.2-0.5,1.2-1.2s-0.5-1.2-1.2-1.2c-0.3,0-0.6,0.1-0.9,0.3l-0.4-0.1
		l0.4-2.3h2.3v0.5h-1.8l-0.2,1.2c0.2-0.1,0.4-0.1,0.6-0.1c1,0,1.7,0.7,1.7,1.7c0,1.1-0.7,1.7-1.8,1.7c-0.7,0-1.3-0.4-1.6-1
		L51.9,49.4z"/>
</g>
<g>
	<rect x="3" y="17.5" class="st1" width="54" height="25"/>
	<path class="st2" d="M7.1,22.7H4.3v-3.8h6.9v18.8H7.1V22.7z"/>
	<path class="st2" d="M16.1,32.2c0.7,1.3,2,2,3.7,2c1.9,0,3.3-1.1,3.3-2.7c0-1.5-1.3-2.6-3.6-2.6c-0.6,0-1.4,0.1-2,0.2l-1.3-2.2
		l4.9-4.2h-6.5v-3.8h12v3l-4.3,3.9h0c3.2,0.4,5.1,2.7,5.1,5.6c0,3.7-2.8,6.6-7.3,6.6c-3.2,0-5.8-1.5-7-3.7L16.1,32.2z"/>
	<path class="st2" d="M28.8,28.3c0-2.2,0-3.1,0.1-3.9c0.4-3.5,3.2-5.8,7-5.8c3.8,0,6.6,2.3,7,5.8c0.1,0.9,0.1,1.7,0.1,3.9
		s0,3.1-0.1,3.9c-0.4,3.5-3.2,5.8-7,5.8c-3.8,0-6.6-2.3-7-5.8C28.8,31.4,28.8,30.5,28.8,28.3z M35.9,34.2c1.5,0,2.7-1,2.8-2.5
		c0.1-0.6,0.1-1.6,0.1-3.5s0-2.7-0.1-3.3c-0.2-1.5-1.3-2.6-2.8-2.6c-1.5,0-2.7,1-2.8,2.6C33,25.6,33,26.4,33,28.3s0,2.8,0.1,3.5
		C33.2,33.3,34.4,34.2,35.9,34.2z"/>
	<path class="st2" d="M46.8,33.3c1.3,0,2.4,1,2.4,2.3c0,1.3-1.1,2.3-2.4,2.3s-2.4-1-2.4-2.3C44.4,34.3,45.5,33.3,46.8,33.3z
		 M45.1,25.8h10.4v3.9H45.1V25.8z"/>
</g>
<line class="st3" x1="29.3" y1="52.7" x2="55.3" y2="47.7"/>
<g>
</g>
<g>
</g>
<g>
</g>
<g>
</g>
<g>
</g>
<g>
</g>
<g>
</g>
<g>
</g>
<g>
</g>
<g>
</g>
<g>
</g>
<g>
</g>
<g>
</g>
<g>
</g>
<g>
</g>
</svg>
